# xmcd CD database file
#
# Track frame offsets:
#	150
#	14135
#	26997
#	40761
#	51612
#	64428
#	75192
#	89910
#	101349
#	116130
#	129291
#	142406
#
# Disc length: 2086 seconds
#
# Revision: 0
# Processed by: cddbd v1.5.2PL0 Copyright (c) Steve Scherf et al.
# Submitted via: CDex 1.51
#
DISCID=b508240c
DTITLE=Dutch Fifties Jazz - Jazz Behind The Dikes CD1
DYEAR=1957
DGENRE=Jazz
TTITLE0=Tony Vos Quartet - Souvenire
TTITLE1=Wessel Ilcken Combo - A Dandy Line 
TTITLE2=Rita Reys with Wessel Ilcken Trio - My Funny Valentine
TTITLE3=The Rob Madna Trio - All Gods Chillun
TTITLE4=Herman Schoonderwald septet - Nowhere
TTITLE5=Herman Schoonderwald septet - Herman's Hanky
TTITLE6=Wessel Ilcken Combo - The Miners Only
TTITLE7=Rita Reys and Wessel Ilcken Combo - There Will Never Be Another You
TTITLE8=Wessel Ilcken Combo - Waiting For Weelink
TTITLE9=Tony Vos Quartet - A Rainy Holiday
TTITLE10=The Rob Madna Trio - Stan The Wailer
TTITLE11=The Rob Madna Trio - The Universe
EXTD=YEAR: 1957
EXTT0=
EXTT1=
EXTT2=
EXTT3=
EXTT4=
EXTT5=
EXTT6=
EXTT7=
EXTT8=
EXTT9=
EXTT10=
EXTT11=
PLAYORDER=
